<?xml version="1.0" standalone="no"?>
<!DOCTYPE svg PUBLIC "-//W3C//DTD SVG 20010904//EN"
 "http://www.w3.org/TR/2001/REC-SVG-20010904/DTD/svg10.dtd">
<svg version="1.0" xmlns="http://www.w3.org/2000/svg"
 width="403.000000pt" height="299.000000pt" viewBox="0 0 403.000000 299.000000"
 preserveAspectRatio="xMidYMid meet">

<g transform="translate(0.000000,299.000000) scale(0.100000,-0.100000)"
fill="#000000" stroke="none">
<path d="M1515 2735 l-60 -14 55 6 c30 3 62 9 70 14 19 11 8 10 -65 -6z"/>
<path d="M1658 2733 c6 -2 18 -2 25 0 6 3 1 5 -13 5 -14 0 -19 -2 -12 -5z"/>
<path d="M1350 2670 c-8 -5 -12 -12 -9 -15 4 -3 12 1 19 10 14 17 11 19 -10 5z"/>
<path d="M1846 2626 c34 -30 67 -69 74 -85 11 -27 9 -35 -13 -73 -32 -57 -52
-120 -76 -253 -12 -60 -26 -137 -32 -170 -16 -85 -25 -279 -16 -350 4 -32 17
-80 29 -105 22 -46 131 -160 152 -160 6 1 -17 27 -51 58 -86 79 -123 158 -123
262 0 70 17 246 39 400 21 151 88 350 118 350 34 0 -83 142 -140 171 -12 6 5
-14 39 -45z"/>
<path d="M2120 2617 c0 -2 15 -14 33 -27 20 -15 27 -17 18 -6 -13 16 -51 41
-51 33z"/>
<path d="M1270 2559 c-12 -23 -20 -43 -18 -45 3 -2 14 17 26 41 27 56 20 60
-8 4z"/>
<path d="M2198 2534 c12 -18 26 -42 31 -55 5 -13 10 -18 10 -11 1 19 -25 66
-45 83 -14 10 -13 6 4 -17z"/>
<path d="M1643 2542 c-9 -6 -13 -40 -12 -115 0 -59 -7 -158 -17 -220 l-18
-112 -13 44 c-7 25 -15 74 -19 110 -10 115 -16 128 -47 96 -13 -13 -16 -11
-21 10 -5 20 -13 25 -36 25 -38 0 -38 -10 4 -101 66 -147 121 -354 132 -504 6
-76 5 -83 -12 -88 -15 -4 -16 -5 -2 -6 25 -2 32 -99 26 -343 -6 -233 -6 -234
57 -217 l38 11 -7 121 c-3 67 -11 190 -16 272 -13 218 -13 455 1 455 6 0 8 7
5 16 -3 8 -2 13 3 10 8 -6 22 23 37 74 9 32 51 105 69 120 19 16 19 30 0 30
-11 0 -13 8 -8 33 11 52 9 72 -7 72 -8 0 -19 -13 -24 -30 -17 -56 -68 -185
-74 -185 -3 0 -2 48 1 108 5 77 14 126 32 175 27 74 33 110 10 62 -10 -19 -13
-22 -9 -7 8 32 -12 27 -24 -5 l-10 -28 -1 31 c-1 42 -12 94 -20 94 -3 0 -12
-4 -18 -8z m14 -44 c-3 -7 -5 -2 -5 12 0 14 2 19 5 13 2 -7 2 -19 0 -25z
m-150 -233 c-4 -10 -37 81 -37 99 1 6 10 -11 20 -39 11 -27 19 -54 17 -60z
m270 23 c-3 -7 -5 -2 -5 12 0 14 2 19 5 13 2 -7 2 -19 0 -25z m-109 -113 c-2
-69 -6 -125 -10 -125 -5 0 -8 26 -8 58 0 68 11 192 17 192 2 0 3 -56 1 -125z
m-83 -113 c-6 -7 -23 40 -30 84 -4 30 -1 25 14 -21 11 -32 18 -61 16 -63z
m122 6 c-3 -8 -6 -5 -6 6 -1 11 2 17 5 13 3 -3 4 -12 1 -19z m-10 -40 c-3 -8
-6 -5 -6 6 -1 11 2 17 5 13 3 -3 4 -12 1 -19z"/>
<path d="M2378 2502 c-53 -19 -127 -71 -128 -89 0 -7 9 -36 19 -65 64 -175
100 -617 55 -689 -2 -4 0 -10 6 -14 5 -3 10 1 10 9 0 25 19 28 46 7 14 -11 41
-25 61 -32 l36 -12 -6 -234 c-7 -257 -10 -244 55 -247 l33 -1 6 270 c4 149 7
290 7 315 1 56 11 48 16 -13 2 -28 -1 -48 -8 -50 -6 -2 -8 -8 -4 -12 4 -4 14
0 24 9 12 13 13 20 4 31 -8 10 -9 19 0 35 12 23 4 64 -11 55 -5 -4 -9 8 -9 25
0 20 4 29 11 25 6 -4 8 -14 4 -24 -4 -11 -3 -13 4 -6 8 8 7 20 -1 43 -11 29
-10 34 17 62 25 26 30 28 38 15 5 -10 4 -21 -2 -29 -8 -9 -7 -13 4 -13 8 0 12
4 9 8 -2 4 3 15 12 23 14 15 11 20 -9 17 -5 -1 -6 3 -3 8 5 8 29 12 89 13 15
1 27 5 27 10 0 5 -5 6 -12 2 -7 -5 -9 -2 -5 8 3 10 -3 19 -19 27 -13 6 -24 16
-24 23 0 9 3 9 10 -2 5 -8 12 -11 17 -7 10 10 -18 28 -34 22 -19 -7 -16 12 3
23 10 6 14 14 9 22 -6 9 -9 9 -16 -1 -7 -11 -9 -10 -9 3 0 9 7 21 16 26 11 6
13 11 5 16 -6 4 -11 2 -11 -4 0 -6 -5 -8 -12 -4 -7 4 -8 3 -4 -4 10 -16 -2
-15 -19 2 -16 16 -10 27 11 19 12 -5 19 7 15 30 0 4 3 7 9 7 5 0 7 7 4 15 -4
11 0 15 17 15 12 0 20 3 16 6 -10 10 -58 -6 -56 -19 3 -23 -1 -37 -10 -37 -13
0 -1 41 17 63 17 20 43 22 60 5 13 -13 27 -5 17 11 -3 6 -22 11 -41 11 -21 0
-33 4 -29 10 3 6 3 15 -1 22 -5 8 -10 6 -15 -8 -5 -13 -8 -14 -8 -4 -1 17 -51
26 -51 10 0 -6 4 -10 9 -10 6 0 6 -12 1 -31 -13 -43 -16 -45 -28 -10 -6 17 -7
31 -2 31 5 0 11 -8 13 -17 7 -30 -3 39 -12 82 -5 22 -9 34 -10 28 0 -7 -6 -13
-12 -13 -6 0 -9 6 -6 14 8 20 -26 9 -54 -17 -22 -21 -22 -21 -17 0 3 11 0 30
-7 42 -10 19 -13 20 -24 8 -7 -9 -14 -28 -15 -44 -2 -15 -4 -32 -5 -38 0 -5
-9 -1 -18 8 -17 17 -17 19 1 32 10 7 15 18 12 23 -3 6 0 13 6 15 9 4 7 6 -3 6
-9 1 -22 -6 -29 -14 -11 -13 -10 -14 5 -9 13 5 16 4 11 -5 -5 -7 -17 -11 -27
-8 -20 5 -26 -7 -9 -18 6 -4 6 -12 -1 -24 -9 -13 -7 -26 10 -59 11 -23 21 -47
21 -54 -1 -7 -7 1 -15 17 l-14 30 5 -40 c3 -36 3 -38 -7 -15 -7 14 -11 39 -10
56 1 21 -4 34 -14 38 -20 7 -32 -21 -15 -37 10 -10 12 -8 7 6 -4 9 -2 17 3 17
15 0 12 -36 -4 -49 -11 -9 -15 -4 -20 26 -4 21 -10 47 -13 58 l-6 20 -8 -20
c-6 -17 -8 -15 -9 10 -1 25 -3 27 -9 11 -6 -16 -10 -12 -18 22 -13 49 -7 82
13 82 8 0 14 4 14 9 0 6 -9 9 -19 8 -11 0 -18 -4 -16 -7 2 -3 0 -12 -6 -20 -7
-12 -9 -11 -9 6 0 25 18 44 36 37 8 -3 14 0 14 6 0 6 21 20 46 31 45 21 74 21
74 0 0 -6 5 -8 11 -5 7 5 4 14 -7 26 -20 22 -16 22 -76 1z m236 -243 c-3 -5
-10 -7 -15 -3 -5 3 -7 9 -4 14 3 5 1 11 -5 15 -5 3 -10 12 -10 18 1 7 9 1 20
-12 11 -12 17 -27 14 -32z m-82 -34 c3 -14 1 -25 -3 -25 -5 0 -9 11 -9 25 0
14 2 25 4 25 2 0 6 -11 8 -25z m-61 -115 c5 0 9 -5 9 -11 0 -5 -5 -7 -12 -3
-8 5 -9 2 -4 -11 5 -15 4 -16 -8 -6 -11 9 -15 9 -19 -1 -4 -9 -6 -9 -6 -1 -1
6 4 15 9 18 6 3 11 18 11 33 2 24 2 24 6 5 2 -13 9 -23 14 -23z m-31 10 c0 -5
-4 -10 -10 -10 -5 0 -10 5 -10 10 0 6 5 10 10 10 6 0 10 -4 10 -10z m-70 -10
c0 -5 -5 -10 -11 -10 -5 0 -7 5 -4 10 3 6 8 10 11 10 2 0 4 -4 4 -10z m220
-39 c0 -32 -6 -24 -14 19 -4 25 -3 31 4 20 5 -8 10 -26 10 -39z m-20 -10 c10
-39 0 -95 -14 -73 -3 6 -2 13 4 17 5 3 10 14 10 23 0 12 -3 13 -8 5 -4 -6 -7
6 -7 28 0 21 1 39 2 39 1 0 7 -18 13 -39z m118 19 c7 -11 8 -20 3 -20 -5 0
-14 -12 -20 -27 l-11 -28 4 28 c2 15 -1 27 -7 27 -5 0 -5 6 2 13 6 8 8 17 4
20 -3 4 -2 7 3 7 5 0 15 -9 22 -20z m-326 -12 c-7 -7 -12 -8 -12 -2 0 6 3 14
7 17 3 4 9 5 12 2 2 -3 -1 -11 -7 -17z m24 -78 c3 0 2 10 -1 23 -5 17 -4 19 4
7 6 -8 11 -24 11 -35 0 -15 3 -16 9 -7 6 10 13 4 25 -21 21 -45 21 -68 0 -39
-9 14 -22 21 -31 18 -8 -4 -11 -1 -8 5 4 6 14 8 22 5 8 -3 13 -1 11 5 -2 6 -8
11 -13 11 -6 0 -18 4 -27 9 -16 8 -17 6 -11 -23 3 -18 10 -34 14 -36 4 -2 5
-11 2 -20 -4 -14 -3 -14 5 -2 6 8 8 18 5 23 -3 5 0 7 8 5 8 -3 13 -12 13 -21
-1 -9 2 -14 7 -11 5 3 9 -4 9 -15 0 -12 6 -21 14 -21 10 0 13 -19 13 -80 0
-44 -4 -80 -8 -80 -5 0 -10 15 -10 33 -2 31 -2 31 -6 4 -3 -16 -11 -31 -19
-34 -11 -4 -12 -9 -3 -19 6 -8 16 -14 21 -14 6 0 5 7 -2 15 -14 16 -10 18 14
9 13 -5 14 -9 5 -20 -9 -11 -8 -14 1 -14 8 0 11 -3 8 -6 -9 -9 -61 21 -85 50
-13 15 -23 38 -22 54 l1 27 8 -25 c7 -25 5 69 -5 225 -4 63 -3 73 5 48 6 -18
13 -33 16 -33z"/>
<path d="M2390 1858 c0 -7 -3 -23 -6 -34 -4 -14 0 -23 11 -28 11 -4 14 -2 9 6
-5 7 -7 25 -6 40 1 15 0 28 -3 28 -3 0 -5 -6 -5 -12z"/>
<path d="M2452 1810 c0 -14 2 -19 5 -12 2 6 2 18 0 25 -3 6 -5 1 -5 -13z"/>
<path d="M2411 1735 c-1 -29 -4 -36 -11 -25 -5 8 -11 12 -14 9 -3 -2 -1 -11 4
-19 15 -24 32 3 27 41 -4 33 -4 33 -6 -6z"/>
<path d="M2505 2495 c27 -14 53 -31 58 -38 6 -8 7 -6 3 6 -3 11 0 17 9 17 8 0
15 -4 15 -9 0 -4 11 -6 25 -3 20 3 24 1 19 -12 -3 -9 -1 -16 5 -16 6 0 11 -6
11 -13 0 -14 39 -51 47 -44 2 3 -6 15 -19 27 -18 19 -19 22 -5 16 10 -3 22 -6
26 -6 4 0 13 -12 20 -27 11 -23 10 -29 -5 -40 -10 -7 -15 -15 -12 -18 3 -3 11
1 18 10 13 16 45 21 35 6 -3 -5 -1 -12 4 -15 5 -4 8 -24 6 -46 -2 -26 0 -38 6
-34 6 3 8 17 5 30 -4 13 -4 24 -2 24 13 0 27 -47 32 -108 3 -37 10 -71 15 -76
6 -6 9 -6 9 1 0 6 3 20 6 30 5 15 4 16 -5 3 -9 -11 -11 0 -7 49 3 46 2 61 -6
50 -7 -10 -8 -8 -4 10 8 37 -50 132 -76 124 -5 -2 -8 3 -8 10 0 7 -13 23 -30
35 -16 13 -30 18 -30 12 0 -5 -5 -10 -12 -10 -6 0 -8 3 -5 7 11 10 -13 33 -34
33 -11 0 -19 4 -19 10 0 5 -10 8 -22 7 -12 -2 -33 2 -47 10 -14 7 -37 13 -51
13 -20 0 -15 -5 25 -25z m300 -197 c4 -7 -3 -2 -14 11 -12 13 -21 31 -21 40 0
14 6 6 35 -51z"/>
<path d="M1230 2460 c-15 -55 -7 -63 9 -9 7 22 10 43 7 46 -2 3 -10 -14 -16
-37z"/>
<path d="M2061 2488 c4 -36 -4 -160 -10 -143 -7 20 -27 68 -40 94 -4 8 -15 15
-24 17 -13 2 -15 -2 -7 -16 14 -27 12 -34 -5 -20 -13 10 -15 9 -15 -9 0 -13 7
-29 15 -38 9 -8 13 -23 10 -33 -4 -12 4 -26 25 -43 25 -22 30 -32 29 -69 -1
-24 -3 -34 -6 -23 -11 50 -25 85 -35 85 -6 0 -8 -10 -5 -22 5 -19 -1 -16 -29
15 -52 56 -64 34 -19 -33 40 -60 41 -77 1 -30 -23 28 -28 30 -45 18 -23 -16
-17 -27 23 -48 17 -8 49 -34 73 -57 40 -38 43 -45 43 -92 0 -28 -2 -51 -4 -51
-12 0 -56 81 -59 110 -6 60 -37 87 -37 33 l0 -28 -20 25 c-17 21 -21 23 -29
10 -7 -9 -6 -19 1 -27 6 -8 12 -25 14 -39 1 -16 17 -39 40 -57 45 -38 94 -113
94 -145 0 -26 3 -29 -128 145 -26 33 -50 59 -54 57 -22 -14 4 -63 76 -143 l31
-35 -40 29 c-21 16 -48 38 -58 48 -15 15 -22 16 -30 7 -9 -9 -7 -16 11 -30 12
-10 22 -23 22 -29 0 -6 3 -11 8 -11 4 0 23 -14 42 -31 28 -24 31 -29 13 -24
-16 4 -23 2 -23 -8 0 -18 32 -47 53 -47 38 0 67 -23 67 -52 0 -34 -3 -32 -70
23 -25 20 -52 49 -60 63 -7 14 -22 26 -32 26 -21 0 -23 -10 -5 -30 6 -8 3 -7
-9 3 -30 24 -47 22 -38 -5 3 -13 11 -25 16 -27 5 -2 13 -13 18 -26 6 -16 25
-28 58 -39 69 -23 122 -84 122 -139 0 -21 -15 -10 -102 74 -57 54 -106 98
-110 99 -24 1 0 -43 55 -99 34 -36 53 -58 42 -50 -11 8 -23 18 -26 22 -3 5 -8
8 -10 7 -2 -1 -16 4 -32 11 -15 7 -30 9 -34 5 -8 -8 8 -22 127 -107 l85 -60 6
-57 c4 -31 7 -128 8 -216 1 -140 3 -157 17 -152 9 3 20 6 25 6 5 0 10 71 10
163 1 89 4 190 8 223 7 68 7 68 150 174 34 24 61 50 61 57 0 19 -5 17 -62 -22
-29 -19 -53 -33 -55 -31 -2 2 23 30 57 61 33 32 60 66 60 75 0 9 -10 26 -21
39 -16 17 -18 26 -10 34 14 14 14 37 1 37 -6 0 -27 -16 -47 -35 -57 -56 -60
-41 -4 24 49 56 66 101 38 101 -8 0 -20 -11 -27 -25 -9 -16 -16 -21 -21 -14
-4 8 -15 6 -35 -6 -18 -12 -12 -3 16 22 25 23 51 38 59 35 8 -3 12 -1 8 5 -4
6 2 18 13 28 19 17 27 45 13 45 -3 0 -20 -10 -37 -23 -58 -44 -61 -41 -13 13
27 32 47 64 47 78 0 33 -8 27 -75 -53 -32 -38 -71 -83 -88 -100 l-30 -29 6 32
c9 44 41 85 88 112 22 12 38 27 36 33 -2 7 2 18 10 25 18 19 17 56 -2 49 -8
-4 -17 -2 -20 3 -11 18 -23 10 -35 -22 -11 -34 -32 -62 -63 -87 -15 -12 -17
-10 -17 22 0 30 5 38 38 54 24 13 38 28 40 43 4 22 2 23 -14 10 -10 -8 -2 5
19 29 33 40 49 81 30 81 -4 0 -18 -12 -31 -27 -21 -26 -21 -25 2 12 26 40 34
79 17 90 -6 3 -29 -32 -53 -77 l-43 -83 -3 109 c-3 102 -11 136 -34 136 -5 0
-8 -6 -7 -12z m93 -650 c-26 -35 -49 -65 -51 -67 -2 -2 -3 21 -3 52 l0 56 43
9 c23 6 46 10 50 11 5 1 -13 -27 -39 -61z m117 -55 c-11 -16 -54 -62 -95 -103
l-76 -74 0 35 c0 41 23 67 115 128 72 47 83 50 56 14z"/>
<path d="M2415 2479 c-4 -5 -13 -8 -21 -5 -7 3 -16 1 -19 -3 -7 -12 27 -24 34
-13 3 5 13 11 21 14 10 3 11 6 3 11 -7 4 -15 2 -18 -4z"/>
<path d="M2337 2447 c-7 -17 9 -44 20 -34 4 5 1 12 -7 17 -14 9 -7 14 13 11 5
-1 6 3 2 9 -9 14 -22 13 -28 -3z"/>
<path d="M2430 2450 c-13 -8 -12 -10 3 -10 9 0 17 5 17 10 0 12 -1 12 -20 0z"/>
<path d="M2380 2440 c0 -5 5 -10 11 -10 5 0 7 5 4 10 -3 6 -8 10 -11 10 -2 0
-4 -4 -4 -10z"/>
<path d="M2406 2414 c-24 -24 -19 -30 7 -8 12 10 24 20 26 21 2 2 -1 3 -7 3
-6 0 -18 -7 -26 -16z"/>
<path d="M2466 2415 c-24 -18 -19 -24 14 -14 14 4 19 7 12 8 -7 1 -10 6 -7 11
8 13 4 12 -19 -5z"/>
<path d="M2518 2403 c7 -3 16 -2 19 1 4 3 -2 6 -13 5 -11 0 -14 -3 -6 -6z"/>
<path d="M1211 2384 c0 -11 3 -14 6 -6 3 7 2 16 -1 19 -3 4 -6 -2 -5 -13z"/>
<path d="M2330 2372 c0 -10 -5 -23 -12 -30 -9 -9 -8 -12 5 -12 12 0 17 8 17
30 0 17 -2 30 -5 30 -3 0 -5 -8 -5 -18z"/>
<path d="M2357 2371 c-4 -17 -3 -21 5 -13 5 5 8 16 6 23 -3 8 -7 3 -11 -10z"/>
<path d="M2418 2383 c7 -3 16 -2 19 1 4 3 -2 6 -13 5 -11 0 -14 -3 -6 -6z"/>
<path d="M2647 2369 c-4 -16 -3 -18 9 -8 7 6 11 15 8 20 -8 13 -11 11 -17 -12z"/>
<path d="M2801 2360 c29 -45 29 -45 29 -34 0 5 -12 23 -26 39 l-26 30 23 -35z"/>
<path d="M2311 2364 c0 -11 3 -14 6 -6 3 7 2 16 -1 19 -3 4 -6 -2 -5 -13z"/>
<path d="M2376 2353 c-6 -14 -5 -15 5 -6 7 7 10 15 7 18 -3 3 -9 -2 -12 -12z"/>
<path d="M2535 2351 c-3 -5 0 -13 6 -17 7 -4 9 -3 5 4 -3 5 0 13 6 15 9 4 10
6 1 6 -6 1 -14 -3 -18 -8z"/>
<path d="M2726 2313 c-6 -14 -5 -15 5 -6 7 7 10 15 7 18 -3 3 -9 -2 -12 -12z"/>
<path d="M2450 2310 c0 -5 5 -10 11 -10 5 0 7 5 4 10 -3 6 -8 10 -11 10 -2 0
-4 -4 -4 -10z"/>
<path d="M2375 2290 c3 -5 11 -10 16 -10 6 0 7 5 4 10 -3 6 -11 10 -16 10 -6
0 -7 -4 -4 -10z"/>
<path d="M2726 2282 c-3 -5 1 -9 9 -9 8 0 12 4 9 9 -3 4 -7 8 -9 8 -2 0 -6 -4
-9 -8z"/>
<path d="M1192 2260 c0 -14 2 -19 5 -12 2 6 2 18 0 25 -3 6 -5 1 -5 -13z"/>
<path d="M2852 2180 c0 -14 2 -19 5 -12 2 6 2 18 0 25 -3 6 -5 1 -5 -13z"/>
<path d="M1191 2164 c0 -11 3 -14 6 -6 3 7 2 16 -1 19 -3 4 -6 -2 -5 -13z"/>
<path d="M1200 2122 c0 -23 40 -126 46 -119 2 2 -8 34 -21 73 -14 38 -25 59
-25 46z"/>
<path d="M2816 2097 c3 -10 9 -15 12 -12 3 3 0 11 -7 18 -10 9 -11 8 -5 -6z"/>
<path d="M2843 2075 c0 -22 2 -30 4 -17 2 12 2 30 0 40 -3 9 -5 -1 -4 -23z"/>
<path d="M2820 2059 c0 -5 -4 -8 -9 -5 -5 4 -7 -4 -3 -16 4 -18 2 -20 -17 -15
-13 3 -20 3 -17 0 3 -4 1 -12 -5 -19 -7 -9 -4 -14 11 -19 17 -5 21 -13 17 -31
-2 -14 0 -27 4 -30 8 -5 14 38 11 79 -1 9 2 17 6 17 4 0 9 11 10 25 1 14 0 25
-3 25 -3 0 -5 -5 -5 -11z"/>
<path d="M1285 1920 c9 -16 18 -30 21 -30 2 0 -2 14 -11 30 -9 17 -18 30 -21
30 -2 0 2 -13 11 -30z"/>
<path d="M1684 1845 c0 -55 1 -76 3 -47 2 29 2 74 0 100 -2 26 -3 2 -3 -53z"/>
<path d="M2722 1920 c-23 -14 -32 -26 -28 -37 4 -8 2 -21 -4 -28 -14 -17 6
-31 23 -16 9 7 16 4 26 -11 13 -21 14 -21 27 -3 7 10 11 22 8 27 -3 4 2 15 10
24 18 17 22 39 6 29 -5 -3 -11 2 -11 12 -1 10 -4 3 -8 -16 -5 -27 -11 -35 -29
-36 -35 -3 -46 19 -17 35 13 7 26 19 29 26 7 18 7 18 -32 -6z m28 -71 c0 -5 5
-7 12 -3 7 4 8 3 4 -4 -10 -16 -23 -15 -30 3 -3 8 -1 15 4 15 6 0 10 -5 10
-11z"/>
<path d="M2625 1890 c-10 -11 -13 -20 -7 -20 5 0 8 -10 6 -22 -4 -23 -4 -23 6
0 5 13 8 28 4 33 -3 5 2 9 10 9 9 0 16 5 16 10 0 16 -15 12 -35 -10z"/>
<path d="M1350 1825 c13 -14 26 -25 28 -25 3 0 -5 11 -18 25 -13 14 -26 25
-28 25 -3 0 5 -11 18 -25z"/>
<path d="M2726 1807 c4 -12 1 -14 -17 -10 -15 4 -20 3 -15 -6 4 -6 11 -9 16
-6 5 3 11 1 14 -4 4 -5 -5 -8 -19 -7 -13 2 -22 0 -20 -4 6 -10 -20 -32 -28
-23 -7 6 -9 0 -11 -29 -1 -7 -5 -16 -11 -20 -5 -4 -6 -10 -2 -15 10 -10 28 18
22 35 -5 15 7 16 21 2 8 -8 15 -5 25 7 13 17 13 17 -5 3 -17 -13 -18 -13 -14
5 2 12 11 19 20 17 8 -1 21 5 28 13 7 8 9 15 4 15 -5 0 -3 4 4 9 10 6 10 10
-3 21 -13 11 -15 10 -9 -3z"/>
<path d="M2661 1774 c0 -11 3 -14 6 -6 3 7 2 16 -1 19 -3 4 -6 -2 -5 -13z"/>
<path d="M1412 1764 c10 -10 20 -16 22 -13 3 3 -5 11 -17 18 -21 13 -21 12 -5
-5z"/>
<path d="M1500 1700 c8 -5 24 -10 34 -10 26 0 18 6 -19 14 -22 5 -26 4 -15 -4z"/>
<path d="M2280 1547 l-23 -32 29 27 c15 15 26 30 23 33 -3 2 -16 -10 -29 -28z"/>
<path d="M547 1003 c-2 -5 14 -63 36 -131 35 -107 43 -123 60 -120 16 2 29 27
59 116 36 104 42 142 21 142 -5 0 -17 -30 -27 -67 -29 -108 -48 -165 -53 -160
-2 3 -17 51 -33 107 -16 56 -32 106 -35 111 -7 11 -22 12 -28 2z"/>
<path d="M885 1000 c-7 -11 -5 -203 2 -231 3 -11 12 -19 19 -19 11 0 14 24 14
114 0 63 -3 121 -6 130 -7 18 -20 21 -29 6z"/>
<path d="M1082 884 l3 -129 44 -3 c94 -7 136 39 129 140 -6 82 -34 110 -118
116 l-61 4 3 -128z m108 98 c29 -23 42 -93 28 -155 -11 -52 -32 -70 -76 -65
l-27 3 -3 104 c-1 58 0 111 2 118 8 19 50 16 76 -5z"/>
<path d="M1473 998 c-17 -27 -82 -231 -77 -240 11 -18 28 -2 39 38 10 37 12
39 57 42 l46 3 13 -43 c8 -25 21 -44 31 -46 14 -3 10 17 -24 120 -22 68 -42
126 -45 131 -7 11 -31 8 -40 -5z m40 -71 c24 -74 23 -77 -23 -77 -22 0 -40 4
-40 10 0 18 34 120 40 120 4 0 14 -24 23 -53z"/>
<path d="M1912 881 l3 -126 52 -3 c45 -3 56 1 83 25 24 22 32 39 36 78 12 100
-41 159 -137 153 l-40 -2 3 -125z m109 100 c22 -17 24 -27 24 -99 0 -94 -16
-122 -72 -122 l-33 0 0 120 0 120 29 0 c16 0 39 -9 52 -19z"/>
<path d="M2250 1002 c-12 -4 -13 -221 -1 -240 10 -16 138 -13 133 3 -2 6 -15
8 -30 6 -76 -12 -77 -11 -77 49 l0 55 45 6 45 5 -45 5 -45 4 0 45 0 45 53 -3
c28 -1 52 2 52 7 0 9 -110 20 -130 13z"/>
<path d="M2722 1002 c-9 -7 -12 -39 -10 -128 2 -98 6 -119 18 -119 11 0 15 12
15 49 l0 49 44 11 c86 21 108 102 36 132 -38 16 -83 18 -103 6z m86 -18 c33
-23 27 -83 -9 -103 -43 -24 -59 -10 -59 52 0 30 3 57 7 60 11 12 38 8 61 -9z"/>
<path d="M3073 998 c-20 -25 -83 -232 -74 -241 15 -15 28 0 35 43 l6 40 48 0
c47 0 48 -1 62 -42 16 -43 40 -63 39 -31 0 10 -17 68 -37 128 -37 109 -55 133
-79 103z m40 -71 c24 -74 23 -77 -23 -77 -22 0 -40 3 -40 7 0 18 34 123 39
123 4 0 15 -24 24 -53z"/>
<path d="M3388 1002 c-50 -3 -74 -22 -64 -49 6 -15 8 -14 22 5 12 18 25 22 65
22 48 0 49 -1 38 -22 -7 -13 -38 -59 -70 -104 -33 -44 -59 -86 -59 -92 0 -8
26 -12 79 -12 83 0 110 13 97 46 -6 15 -8 15 -19 2 -14 -18 -71 -28 -105 -19
-21 6 -19 11 48 101 38 52 70 100 70 106 0 14 -39 20 -102 16z"/>
</g>
</svg>
